<svg width="48" height="48" viewBox="0 0 48 48" fill="none" xmlns="http://www.w3.org/2000/svg">
<g clip-path="url(#clip0_45:10)">
<path d="M9.23115 0C4.15474 0 0 4.23158 0 9.4021V38.5785C0 43.7489 4.15465 47.979 9.23115 47.979H37.877C42.9535 47.979 47.1067 43.7489 47.1067 38.5785V9.4021C47.1067 4.23168 42.9535 0 37.877 0H9.23115ZM11.5529 7.9175C13.9869 7.9175 15.4862 9.54499 15.5325 11.6843C15.5325 13.7764 13.9869 15.4496 11.5058 15.4496H11.4602C9.07247 15.4496 7.52919 13.7765 7.52919 11.6843C7.52919 9.54504 9.11917 7.9175 11.5529 7.9175H11.5529ZM32.5283 17.9164C37.2094 17.9164 40.7186 21.0326 40.7186 27.7293V40.2309H33.6046V28.5675C33.6046 25.6366 32.575 23.637 30.0005 23.637C28.0351 23.637 26.8636 24.9848 26.3492 26.2867C26.1613 26.7525 26.1152 27.4031 26.1152 28.0547V40.2309H19.0011C19.0011 40.2309 19.0945 20.4734 19.0011 18.4277H26.1166V21.5152C27.062 20.0296 28.753 17.9163 32.5283 17.9163V17.9164ZM7.94882 18.4293H15.0628V40.231H7.94882V18.4293V18.4293Z" fill="#F8EDED"/>
</g>
<defs>
<clipPath id="clip0_45:10">
<rect width="47.1273" height="48" fill="white"/>
</clipPath>
</defs>
</svg>
