<svg width="48" height="48" viewBox="0 0 48 48" fill="none" xmlns="http://www.w3.org/2000/svg">
<g clip-path="url(#clip0_45:8)">
<path d="M8.76451 0.929077C3.90936 0.929077 0 4.83844 0 9.69359V40.1646C0 45.0198 3.90936 48.9291 8.76451 48.9291H25.2795V30.1641H20.3175V23.4081H25.2795V17.6361C25.2795 13.1013 28.2113 8.93759 34.965 8.93759C37.6995 8.93759 39.7215 9.2001 39.7215 9.2001L39.5625 15.5091C39.5625 15.5091 37.5003 15.4896 35.25 15.4896C32.8145 15.4896 32.424 16.6118 32.424 18.4747V23.4082H39.756L39.4365 30.1642H32.424V48.9292H39.2355C44.0906 48.9292 48 45.0198 48 40.1647V9.69364C48 4.83849 44.0906 0.929125 39.2355 0.929125H8.76446L8.76451 0.929077Z" fill="#F8EDED"/>
</g>
<defs>
<clipPath id="clip0_45:8">
<rect width="48" height="48" fill="white"/>
</clipPath>
</defs>
</svg>
