<svg width="48" height="48" viewBox="0 0 48 48" fill="none" xmlns="http://www.w3.org/2000/svg">
<path d="M34.4809 8.15798C34.4809 8.15798 35.7802 9.4397 34.4809 8.15798C32.7393 6.15753 31.7795 3.58847 31.7803 0.929077H23.9078V32.7157C23.8471 34.4359 23.1253 36.0652 21.8945 37.2606C20.6637 38.4559 19.0198 39.1241 17.3092 39.1244C13.6914 39.1244 10.6851 36.1508 10.6851 32.4594C10.6851 28.0503 14.9143 24.7434 19.2709 26.1021V18.0016C10.4813 16.8224 2.78711 23.6924 2.78711 32.4594C2.78711 40.9957 9.81884 47.071 17.2837 47.071C25.2836 47.071 31.7803 40.5342 31.7803 32.4594V16.3354C34.9726 18.6421 38.8053 19.8797 42.7355 19.8729V11.9519C42.7355 11.9519 37.9458 12.1826 34.4809 8.15798Z" fill="#F8EDED"/>
</svg>
