<svg width="48" height="48" viewBox="0 0 48 48" fill="none" xmlns="http://www.w3.org/2000/svg">
<path d="M25.1078 47C22.0209 44.3669 19.1596 41.4803 16.5539 38.3703C12.6435 33.6999 8 26.7444 8 20.1164C7.99831 16.7314 9.00083 13.4219 10.8807 10.6069C12.7606 7.79193 15.4333 5.59786 18.5606 4.30241C21.6878 3.00696 25.1292 2.66835 28.449 3.32945C31.7688 3.99055 34.8178 5.62163 37.2103 8.01627C38.8032 9.60206 40.0657 11.488 40.9249 13.565C41.784 15.642 42.2227 17.8687 42.2156 20.1164C42.2156 26.7444 37.572 33.6999 33.6617 38.3703C31.0559 41.4803 28.1946 44.3669 25.1078 47ZM25.1078 12.7844C23.1632 12.7844 21.2983 13.5569 19.9233 14.9319C18.5483 16.3069 17.7759 18.1718 17.7759 20.1164C17.7759 22.0609 18.5483 23.9258 19.9233 25.3008C21.2983 26.6758 23.1632 27.4483 25.1078 27.4483C27.0523 27.4483 28.9172 26.6758 30.2922 25.3008C31.6672 23.9258 32.4397 22.0609 32.4397 20.1164C32.4397 18.1718 31.6672 16.3069 30.2922 14.9319C28.9172 13.5569 27.0523 12.7844 25.1078 12.7844Z" fill="#F8EDED"/>
</svg>
