<svg width="48" height="48" viewBox="0 0 48 48" fill="none" xmlns="http://www.w3.org/2000/svg">
<g clip-path="url(#clip0_45:21)">
<path d="M47.3329 39.9137L40.5654 46.6269C39.5664 47.6514 38.2423 47.9984 36.9528 48C31.2499 47.8292 25.8594 45.0278 21.4335 42.1514C14.1686 36.8662 7.50279 30.3128 3.31919 22.3933C1.71462 19.0724 -0.168096 14.8351 0.0117841 11.1284C0.0278241 9.73395 0.403584 8.36543 1.38562 7.46663L8.15307 0.702594C9.55835 -0.492726 10.9173 -0.0794456 11.8166 1.31287L17.2611 11.637C17.8341 12.86 17.5054 14.1705 16.6504 15.0445L14.1571 17.5365C14.0032 17.7473 13.9052 17.9873 13.9027 18.2485C14.8588 21.9494 17.7553 25.3605 20.314 27.708C22.8727 30.0555 25.623 33.2359 29.1931 33.9888C29.6344 34.1119 30.1749 34.1551 30.4906 33.8616L33.391 30.9119C34.3908 30.1541 35.8344 29.7837 36.9018 30.4034H36.9527L46.7731 36.2011C48.2148 37.1048 48.3651 38.8512 47.3329 39.9137Z" fill="#F8EDED"/>
</g>
<defs>
<clipPath id="clip0_45:21">
<rect width="48" height="48" fill="white"/>
</clipPath>
</defs>
</svg>
